<?xml version="1.0" encoding="utf-8"?>
<!-- Generator: Adobe Illustrator 22.1.0, SVG Export Plug-In . SVG Version: 6.00 Build 0)  -->
<svg version="1.1" id="Layer_1" xmlns="http://www.w3.org/2000/svg" xmlns:xlink="http://www.w3.org/1999/xlink" x="0px" y="0px"
	 viewBox="0 0 50 50" style="enable-background:new 0 0 50 50;" xml:space="preserve">
<style type="text/css">
	.st0{fill:#003750;}
</style>
<g>
	<g>
		<path class="st0" d="M33.4,11.3H16.6c-3.1,0-5.6,2.5-5.6,5.6v16.7c0,3.1,2.5,5.6,5.6,5.6h16.7c3.1,0,5.6-2.5,5.6-5.6V16.8
			C39,13.8,36.5,11.3,33.4,11.3z M36.2,32.2c0,2.3-1.9,4.2-4.2,4.2h-4.2H32c-5.5,0.1-2.2,0-5.6,0h-2.8c-3.4,0,0.8,0.1-5.6,0
			c-2.3,0-4.2-1.9-4.2-4.2v-14c0-2.3,1.9-4.2,4.2-4.2h14c2.3,0,4.2,1.9,4.2,4.2L36.2,32.2L36.2,32.2z M29.2,21.7
			c0-2.7-1.9-4.9-4.2-4.9c-2.3,0-4.2,2.2-4.2,4.9c0,2.7,1.9,4.9,4.2,4.9C27.3,26.6,29.2,24.4,29.2,21.7z M25,33.6V28
			c0,0,1.6,0,2.7,0c0.1,0,0-1,0.1-1.1c-0.6-0.2-1.3-0.3-2-0.3H25h-0.8c-3.4,0-6.2,2.5-6.2,5.6v4.2h9.8v-2.8L25,33.6L25,33.6z
			 M29.2,27.6L29.2,27.6c0,0.2,0,0.4,0,0.4v1.4h-2.8v2.8h2.8V35H32v-1.4c0,0,0.1-0.6,0-1.4h2.8v-2.8H32v-2.8l-2.8,0V27.6
			c-0.2-0.2-0.4-0.3-0.6-0.4C28.8,27.3,29.1,27.5,29.2,27.6C29.2,27.5,29.2,27.6,29.2,27.6L29.2,27.6z M27.8,26.9
			C27.8,26.9,27.8,26.9,27.8,26.9c0.2,0.1,0.5,0.2,0.7,0.3C28.4,27.1,28.1,27,27.8,26.9z"/>
	</g>
</g>
</svg>
