<?xml version="1.0" encoding="utf-8"?>
<!-- Generator: Adobe Illustrator 22.1.0, SVG Export Plug-In . SVG Version: 6.00 Build 0)  -->
<svg version="1.1" id="Layer_1" xmlns="http://www.w3.org/2000/svg" xmlns:xlink="http://www.w3.org/1999/xlink" x="0px" y="0px"
	 viewBox="0 0 50 50" style="enable-background:new 0 0 50 50;" xml:space="preserve">
<style type="text/css">
	.st0{fill:#003750;}
</style>
<g>
	<g id="XMLID_293_">
		<g>
			<path class="st0" d="M40.9,29.1h-4.7h-2.6c0-0.9,0-1.9,0-2.4c0-0.9-0.7-1.4-0.7-1.4l-3-0.8L32,24l0.7-2.1c-0.7-0.3-1-1.6-1-1.6
				s-0.5-2.8-0.5-4.8c0-2.1,3.1-2.2,3.1-2.2h0c0,0,3.1,0.1,3.1,2.2c0,2.1-0.5,4.8-0.5,4.8s-0.3,1.3-1,1.6l0.7,2.1l3.7,1
				c0,0,0.5,0.4,0.5,1.1C40.9,26.8,40.9,29.1,40.9,29.1z"/>
			<path class="st0" d="M27.2,31h-4.5h-5.7c0,0,0-2.9,0-3.7c0-0.8,0.7-1.3,0.7-1.3l4.5-1.2l0.9-2.5c-0.9-0.4-1.3-2-1.3-2
				s-0.6-3.3-0.6-5.8c0-2.5,3.8-2.7,3.8-2.7h0c0,0,3.8,0.2,3.8,2.7c0,2.5-0.6,5.8-0.6,5.8s-0.4,1.6-1.3,2l0.9,2.5l4.5,1.2
				c0,0,0.7,0.5,0.7,1.3c0,0.8,0,3.7,0,3.7H27.2z"/>
			<path class="st0" d="M13.8,29.1H9.1c0,0,0-2.4,0-3.1c0-0.7,0.5-1.1,0.5-1.1l3.7-1l0.7-2.1c-0.7-0.3-1-1.6-1-1.6s-0.5-2.8-0.5-4.8
				c0-2.1,3.1-2.2,3.1-2.2h0c0,0,3.1,0.1,3.1,2.2c0,2.1-0.5,4.8-0.5,4.8s-0.3,1.3-1,1.6L18,24l2.1,0.5l-3,0.8c0,0-0.7,0.6-0.7,1.4
				c0,0.4,0,1.5,0,2.4H13.8z"/>
		</g>
	</g>
</g>
<g>
	<path class="st0" d="M25,29.3c2.6,0,4.7,2.1,4.7,4.7c0,2.6-2.1,4.7-4.7,4.7c-2.6,0-4.7-2.1-4.7-4.7C20.3,31.4,22.4,29.3,25,29.3z
		 M25.8,36.6v-1.8h1.8v-1.7h-1.8v-1.7h-1.7v1.7h-1.7v1.7h1.7v1.8H25.8z"/>
	<path class="st0" d="M25,38.9c-2.7,0-4.8-2.2-4.8-4.8c0-2.7,2.2-4.8,4.8-4.8c2.7,0,4.8,2.2,4.8,4.8C29.8,36.7,27.7,38.9,25,38.9z
		 M25,29.4c-2.5,0-4.6,2.1-4.6,4.6c0,2.5,2.1,4.6,4.6,4.6c2.5,0,4.6-2.1,4.6-4.6C29.6,31.5,27.5,29.4,25,29.4z M25.9,36.7h-1.9V35
		h-1.7v-1.9h1.7v-1.7h1.9v1.7h1.8V35h-1.8V36.7z M24.3,36.5h1.5v-1.8h1.8v-1.5h-1.8v-1.7h-1.5v1.7h-1.7v1.5h1.7V36.5z"/>
</g>
</svg>
