<?xml version="1.0" encoding="utf-8"?>
<!-- Generator: Adobe Illustrator 22.1.0, SVG Export Plug-In . SVG Version: 6.00 Build 0)  -->
<svg version="1.1" id="Layer_1" xmlns="http://www.w3.org/2000/svg" xmlns:xlink="http://www.w3.org/1999/xlink" x="0px" y="0px"
	 viewBox="0 0 50 50" style="enable-background:new 0 0 50 50;" xml:space="preserve">
<style type="text/css">
	.st0{fill:#003750;}
</style>
<g>
	<g id="XMLID_213_">
		<g>
			<path class="st0" d="M42.2,32.8h-5.1h-2.8c0-1,0-2.1,0-2.6c0-0.9-0.7-1.5-0.7-1.5l-3.2-0.8l2.3-0.6l0.8-2.2
				c-0.8-0.3-1.1-1.8-1.1-1.8s-0.6-3-0.6-5.2c0-2.3,3.4-2.4,3.4-2.4h0c0,0,3.4,0.2,3.4,2.4c0,2.2-0.6,5.2-0.6,5.2s-0.3,1.4-1.1,1.8
				l0.8,2.2l4,1c0,0,0.6,0.5,0.6,1.2C42.2,30.2,42.2,32.8,42.2,32.8z"/>
			<path class="st0" d="M27.4,34.7h-4.9h-6.1c0,0,0-3.1,0-4c0-0.9,0.7-1.5,0.7-1.5l4.8-1.3l1-2.7c-1-0.4-1.4-2.1-1.4-2.1
				s-0.7-3.6-0.7-6.3c0-2.7,4.1-2.9,4.1-2.9h0c0,0,4.1,0.2,4.1,2.9c0,2.7-0.7,6.3-0.7,6.3S28,24.9,27,25.3l1,2.7l4.8,1.3
				c0,0,0.7,0.6,0.7,1.5c0,0.9,0,4,0,4H27.4z"/>
			<path class="st0" d="M12.9,32.8H7.8c0,0,0-2.6,0-3.3c0-0.7,0.6-1.2,0.6-1.2l4-1l0.8-2.2c-0.8-0.3-1.1-1.8-1.1-1.8s-0.6-3-0.6-5.2
				c0-2.3,3.4-2.4,3.4-2.4h0c0,0,3.4,0.2,3.4,2.4c0,2.2-0.6,5.2-0.6,5.2s-0.3,1.4-1.1,1.8l0.8,2.2l2.3,0.6l-3.2,0.8
				c0,0-0.7,0.6-0.7,1.5c0,0.5,0,1.6,0,2.6H12.9z"/>
		</g>
	</g>
</g>
</svg>
