<?xml version="1.0" encoding="utf-8"?>
<!-- Generator: Adobe Illustrator 22.1.0, SVG Export Plug-In . SVG Version: 6.00 Build 0)  -->
<svg version="1.1" id="Layer_1" xmlns="http://www.w3.org/2000/svg" xmlns:xlink="http://www.w3.org/1999/xlink" x="0px" y="0px"
	 viewBox="0 0 50 50" style="enable-background:new 0 0 50 50;" xml:space="preserve">
<style type="text/css">
	.st0{fill:#003750;}
</style>
<g>
	<path class="st0" d="M36,32.7l-4.5-4.5l3.2-1.8c0.2-0.1,0.4-0.4,0.4-0.7c0-0.3-0.2-0.5-0.5-0.6l-14.2-5.7c-0.3-0.1-0.6,0-0.8,0.2
		c-0.2,0.2-0.3,0.5-0.2,0.8l5.6,14.2c0.1,0.3,0.4,0.4,0.6,0.5c0.3,0,0.6-0.1,0.7-0.4l1.8-3.2l4.5,4.5c0.1,0.1,0.3,0.2,0.5,0.2
		c0.2,0,0.4-0.1,0.5-0.2l2.2-2.2C36.3,33.5,36.3,33,36,32.7z"/>
	<path class="st0" d="M17.1,16c-0.3-0.3-0.8-0.3-1.1,0c-0.3,0.3-0.3,0.8,0,1.1l1.7,1.7c0.1,0.1,0.3,0.2,0.5,0.2
		c0.2,0,0.4-0.1,0.5-0.2c0.3-0.3,0.3-0.8,0-1.1L17.1,16z"/>
	<path class="st0" d="M17.7,21.2c0-0.4-0.3-0.7-0.7-0.7h-2.4c-0.4,0-0.7,0.3-0.7,0.7c0,0.4,0.3,0.7,0.7,0.7h2.4
		C17.3,22,17.7,21.6,17.7,21.2z"/>
	<path class="st0" d="M17.4,23.5l-1.7,1.7c-0.3,0.3-0.3,0.8,0,1.1c0.1,0.1,0.3,0.2,0.5,0.2s0.4-0.1,0.5-0.2l1.7-1.7
		c0.3-0.3,0.3-0.8,0-1.1C18.1,23.2,17.6,23.2,17.4,23.5z"/>
	<path class="st0" d="M21.2,17.7c0.4,0,0.7-0.3,0.7-0.7v-2.4c0-0.4-0.3-0.7-0.7-0.7c-0.4,0-0.7,0.3-0.7,0.7v2.4
		C20.5,17.3,20.8,17.7,21.2,17.7z"/>
	<path class="st0" d="M24,18.6c0.2,0,0.4-0.1,0.5-0.2l1.7-1.7c0.3-0.3,0.3-0.8,0-1.1c-0.3-0.3-0.8-0.3-1.1,0l-1.7,1.7
		c-0.3,0.3-0.3,0.8,0,1.1C23.7,18.6,23.9,18.6,24,18.6z"/>
</g>
</svg>
