<?xml version="1.0" encoding="utf-8"?>
<!-- Generator: Adobe Illustrator 22.1.0, SVG Export Plug-In . SVG Version: 6.00 Build 0)  -->
<svg version="1.1" id="Layer_1" xmlns="http://www.w3.org/2000/svg" xmlns:xlink="http://www.w3.org/1999/xlink" x="0px" y="0px"
	 viewBox="0 0 50 50" style="enable-background:new 0 0 50 50;" xml:space="preserve">
<style type="text/css">
	.st0{fill:#003750;}
</style>
<path class="st0" d="M39.3,24.4c0-0.1,0-0.1-0.1-0.1l-4.5-3.5c-0.1-0.1-0.2-0.1-0.2,0c-0.1,0-0.1,0.1-0.1,0.2c0,0,0,0.1,0,0.1
	l0.7,1.9c-3.4-0.2-4.5-1.7-5.9-3.6c-1.1-1.6-2.5-3.5-5.4-4.3c-0.4-2.7-2.7-4.7-5.5-4.7c-3.1,0-5.5,2.5-5.5,5.5
	c0,3.1,2.5,5.5,5.5,5.5c2.2,0,4.2-1.4,5.1-3.3c1.6,0.6,2.4,1.7,3.4,3.1c0.8,1.1,1.7,2.4,3.2,3.4c-1.5,1-2.4,2.2-3.2,3.4
	c-0.9,1.3-1.7,2.4-3.2,3c-0.7-2.2-2.8-3.7-5.2-3.7c-3.1,0-5.5,2.5-5.5,5.5c0,3.1,2.5,5.5,5.5,5.5c2.6,0,4.8-1.8,5.4-4.2
	c3-0.8,4.3-2.8,5.5-4.4c1.3-1.9,2.4-3.4,5.9-3.6l-0.7,1.9c0,0,0,0.1,0,0.1c0,0.1,0,0.1,0.1,0.2c0.1,0.1,0.2,0,0.2,0l4.5-3.5
	C39.3,24.6,39.3,24.5,39.3,24.4C39.3,24.5,39.3,24.5,39.3,24.4C39.3,24.4,39.3,24.4,39.3,24.4z M21.9,15.8c0,0.7-0.2,1.3-0.5,1.8
	c-0.1,0.1-0.1,0.2-0.2,0.3c-0.3,0.3-0.6,0.6-0.9,0.8c-0.5,0.3-1.1,0.5-1.8,0.5c-1.9,0-3.4-1.5-3.4-3.4c0-1.9,1.5-3.4,3.4-3.4
	c0.8,0,1.5,0.3,2.1,0.7c0.3,0.2,0.5,0.5,0.7,0.7c0.2,0.2,0.3,0.5,0.4,0.7C21.8,14.9,21.9,15.3,21.9,15.8z M21.9,32.6
	c0,0.6-0.2,1.2-0.5,1.8c-0.1,0.1-0.2,0.3-0.3,0.4c-0.3,0.3-0.6,0.6-0.9,0.8c-0.5,0.3-1.1,0.5-1.8,0.5c-1.9,0-3.4-1.5-3.4-3.4
	c0-1.9,1.5-3.4,3.4-3.4c0.8,0,1.6,0.3,2.1,0.8c0.3,0.2,0.5,0.5,0.7,0.7c0.1,0.2,0.3,0.4,0.3,0.6C21.8,31.7,21.9,32.1,21.9,32.6z"/>
</svg>
