<?xml version="1.0" encoding="utf-8"?>
<!-- Generator: Adobe Illustrator 22.1.0, SVG Export Plug-In . SVG Version: 6.00 Build 0)  -->
<svg version="1.1" id="Layer_1" xmlns="http://www.w3.org/2000/svg" xmlns:xlink="http://www.w3.org/1999/xlink" x="0px" y="0px"
	 viewBox="0 0 50 50" style="enable-background:new 0 0 50 50;" xml:space="preserve">
<style type="text/css">
	.st0{fill:#003750;}
</style>
<path class="st0" d="M20.2,26h12c0.4,0.9,1.3,1.5,2.3,1.5c1.4,0,2.5-1.1,2.5-2.5s-1.1-2.5-2.5-2.5c-1,0-1.9,0.6-2.3,1.5h-12V11.5
	h12.2c0.4,0.7,1.2,1.2,2.1,1.2c1.4,0,2.5-1.1,2.5-2.5s-1.1-2.5-2.5-2.5c-1.1,0-2,0.7-2.3,1.7H17.5V24H9.3V26h8.2v14.6h14.6
	c0.3,1,1.2,1.7,2.3,1.7c1.4,0,2.5-1.1,2.5-2.5c0-1.4-1.1-2.5-2.5-2.5c-0.9,0-1.6,0.5-2.1,1.2H20.2V26z"/>
</svg>
