<?xml version="1.0" encoding="utf-8"?>
<!-- Generator: Adobe Illustrator 22.1.0, SVG Export Plug-In . SVG Version: 6.00 Build 0)  -->
<svg version="1.1" id="Layer_1" xmlns="http://www.w3.org/2000/svg" xmlns:xlink="http://www.w3.org/1999/xlink" x="0px" y="0px"
	 viewBox="0 0 50 50" style="enable-background:new 0 0 50 50;" xml:space="preserve">
<style type="text/css">
	.st0{fill:#003750;}
</style>
<g>
	<path class="st0" d="M26,35.7h-2.4c-0.7,0-1.2,0.5-1.2,1.2v2.4c0,0.7,0.5,1.2,1.2,1.2H26c0.7,0,1.2-0.5,1.2-1.2v-2.4
		C27.2,36.1,26.7,35.7,26,35.7z"/>
	<path class="st0" d="M24.8,9.6c-5.9,0-10.7,4.7-10.7,10.7c0,0.6,0,1.2,0.1,1.8c0.1,0.7,0.8,1.1,1.5,0.9l2.3-0.7
		c0.6-0.1,0.9-0.7,0.8-1.3c0-0.2,0-0.5,0-0.7c0-3.3,2.6-5.9,5.9-5.9s5.9,2.6,5.9,5.9c0,2-1.2,3-3.3,4.7c-2,1.7-4.4,3.6-5,7
		c-0.1,0.7,0.5,1.3,1.2,1.3H26c0.6,0,1.1-0.4,1.2-0.9c0.4-1.4,1.4-2.4,3.2-3.7c2.3-1.8,5.1-4,5.1-8.4C35.5,14.3,30.7,9.6,24.8,9.6z"
		/>
</g>
</svg>
