<?xml version="1.0" encoding="utf-8"?>
<!-- Generator: Adobe Illustrator 22.1.0, SVG Export Plug-In . SVG Version: 6.00 Build 0)  -->
<svg version="1.1" id="Layer_1" xmlns="http://www.w3.org/2000/svg" xmlns:xlink="http://www.w3.org/1999/xlink" x="0px" y="0px"
	 viewBox="0 0 50 50" style="enable-background:new 0 0 50 50;" xml:space="preserve">
<style type="text/css">
	.st0{fill:#003750;}
</style>
<g id="XMLID_1_">
	<g>
		<path class="st0" d="M29.6,29.3h-9.3c-0.6,0-1.1-0.5-1.1-1.1v-6.4c0-0.5,0.3-0.9,0.7-1l5.1,4l5.1-4c0.4,0.2,0.7,0.6,0.7,1v6.4
			C30.7,28.8,30.2,29.3,29.6,29.3z"/>
		<rect x="27" y="34.7" class="st0" width="0.7" height="0.7"/>
		<rect x="25.6" y="34.7" class="st0" width="0.7" height="0.7"/>
		<polygon class="st0" points="20.8,20.6 29.1,20.6 24.9,23.9 		"/>
		<rect x="24.3" y="34.7" class="st0" width="0.7" height="0.7"/>
		<rect x="22.9" y="34.7" class="st0" width="0.7" height="0.7"/>
		<path class="st0" d="M26,38.6c0-0.6-0.5-1-1-1c-0.6,0-1,0.5-1,1c0,0.6,0.5,1.1,1,1.1C25.6,39.6,26,39.2,26,38.6z M32.9,13.4H17.1
			v22.9h15.7V13.4z M18,11.5h14c1,0,1.8,0.8,1.8,1.7v25.5c0,0.9-0.8,1.7-1.8,1.7H18c-1,0-1.8-0.8-1.8-1.7V13.2
			C16.2,12.2,17,11.5,18,11.5z"/>
	</g>
</g>
</svg>
