<?xml version="1.0" encoding="utf-8"?>
<!-- Generator: Adobe Illustrator 22.1.0, SVG Export Plug-In . SVG Version: 6.00 Build 0)  -->
<svg version="1.1" id="Layer_1" xmlns="http://www.w3.org/2000/svg" xmlns:xlink="http://www.w3.org/1999/xlink" x="0px" y="0px"
	 viewBox="0 0 50 50" style="enable-background:new 0 0 50 50;" xml:space="preserve">
<style type="text/css">
	.st0{fill:#003750;}
</style>
<g>
	<g id="c1_ray_1_">
		<polygon class="st0" points="43,21 33.8,30.2 37.2,30.2 34.6,37.1 44,28 40.6,28 		"/>
	</g>
</g>
<g>
	<path class="st0" d="M37.9,23.1c-0.1-0.2-0.3-0.3-0.5-0.3h-1.6c-1-5.6-5.9-9.8-11.8-9.8c-6.6,0-12,5.4-12,12c0,6.6,5.4,12,12,12
		c4.3,0,8.2-2.3,10.4-6c0.3-0.5,0.1-1.2-0.4-1.5c-0.5-0.3-1.2-0.1-1.5,0.4c-1.8,3-5,4.9-8.5,4.9c-5.4,0-9.8-4.4-9.8-9.8
		c0-5.4,4.4-9.8,9.8-9.8c4.7,0,8.6,3.3,9.6,7.6h-1.6c-0.2,0-0.4,0.1-0.5,0.3c-0.1,0.2-0.1,0.4,0.1,0.6l2.7,3.3
		c0.1,0.1,0.3,0.2,0.4,0.2c0.2,0,0.3-0.1,0.4-0.2l2.7-3.3C37.9,23.6,37.9,23.3,37.9,23.1L37.9,23.1z M37.9,23.1"/>
	<path class="st0" d="M24,15.7c-0.6,0-1.1,0.5-1.1,1.1v6.6c-0.5,0.3-0.8,0.9-0.8,1.6c0,1.1,0.9,1.9,1.9,1.9c0.3,0,0.6-0.1,0.8-0.2
		l3.8,2.2c0.2,0.1,0.4,0.1,0.5,0.1c0.4,0,0.7-0.2,0.9-0.5c0.3-0.5,0.1-1.2-0.4-1.5l-3.8-2.2c-0.1-0.6-0.4-1.1-0.8-1.4v-6.6
		C25.1,16.2,24.6,15.7,24,15.7L24,15.7z M24,25.8c-0.4,0-0.8-0.4-0.8-0.8c0-0.4,0.4-0.8,0.8-0.8c0.5,0,0.8,0.4,0.8,0.8
		C24.8,25.5,24.4,25.8,24,25.8L24,25.8z M24,25.8"/>
</g>
</svg>
