<?xml version="1.0" encoding="utf-8"?>
<!-- Generator: Adobe Illustrator 22.1.0, SVG Export Plug-In . SVG Version: 6.00 Build 0)  -->
<svg version="1.1" id="Layer_1" xmlns="http://www.w3.org/2000/svg" xmlns:xlink="http://www.w3.org/1999/xlink" x="0px" y="0px"
	 viewBox="0 0 50 50" style="enable-background:new 0 0 50 50;" xml:space="preserve">
<style type="text/css">
	.st0{fill:#003750;}
</style>
<g>
	<path class="st0" d="M41.7,22.9c-0.1-0.2-0.3-0.4-0.6-0.4h-2c-1.3-6.9-7.3-12.2-14.6-12.2c-8.2,0-14.8,6.7-14.8,14.8
		c0,8.2,6.7,14.9,14.8,14.9c5.3,0,10.2-2.8,12.9-7.4c0.4-0.6,0.2-1.5-0.5-1.8c-0.6-0.4-1.5-0.2-1.8,0.5c-2.2,3.7-6.2,6.1-10.5,6.1
		c-6.7,0-12.1-5.4-12.1-12.2c0-6.7,5.4-12.1,12.1-12.1c5.8,0,10.6,4,11.8,9.4h-2c-0.3,0-0.5,0.2-0.6,0.4c-0.1,0.2-0.1,0.5,0.1,0.7
		l3.4,4.1c0.1,0.2,0.3,0.2,0.5,0.2c0.2,0,0.4-0.1,0.5-0.2l3.4-4.1C41.7,23.4,41.8,23.1,41.7,22.9L41.7,22.9z M41.7,22.9"/>
	<path class="st0" d="M24.4,13.7c-0.7,0-1.3,0.6-1.3,1.4v8.2c-0.6,0.4-1,1.1-1,1.9c0,1.3,1.1,2.4,2.4,2.4c0.4,0,0.7-0.1,1-0.2
		l4.7,2.7c0.2,0.1,0.4,0.2,0.7,0.2c0.5,0,0.9-0.2,1.2-0.7c0.4-0.6,0.2-1.5-0.5-1.8L26.8,25c-0.1-0.7-0.4-1.3-1-1.7v-8.2
		C25.8,14.3,25.2,13.7,24.4,13.7L24.4,13.7z M24.4,26.2c-0.6,0-1-0.5-1-1c0-0.6,0.5-1,1-1c0.6,0,1,0.5,1,1
		C25.5,25.8,25,26.2,24.4,26.2L24.4,26.2z M24.4,26.2"/>
</g>
</svg>
